<mxfile host="app.diagrams.net" modified="2023-04-03T15:26:56.250Z" agent="Mozilla/5.0 (Macintosh; Intel Mac OS X 10_15_7) AppleWebKit/605.1.15 (KHTML, like Gecko) Version/16.3 Safari/605.1.15" etag="4ZCvtQslzAvoHiZlMzlo" version="21.1.4" type="github">
  <diagram name="Page-1" id="0caydDPrvbqhQg4bOhlp">
    <mxGraphModel dx="838" dy="556" grid="1" gridSize="10" guides="1" tooltips="1" connect="1" arrows="1" fold="1" page="1" pageScale="1" pageWidth="827" pageHeight="1169" math="0" shadow="0">
      <root>
        <mxCell id="0" />
        <mxCell id="1" parent="0" />
        <mxCell id="lF3gr7xNKw-7-fp1E300-1" value="" style="swimlane;startSize=0;" vertex="1" parent="1">
          <mxGeometry x="310" y="190" width="200" height="200" as="geometry" />
        </mxCell>
      </root>
    </mxGraphModel>
  </diagram>
</mxfile>
